<svg width="160" height="160" viewBox="0 0 160 160" fill="none" xmlns="http://www.w3.org/2000/svg">
  <rect width="160" height="160" rx="36" fill="#050505"/>
  <path d="M80 28L121 43V75C121 101.6 104.1 124.9 80 133C55.9 124.9 39 101.6 39 75V43L80 28Z" fill="#FFFFFF"/>
  <path d="M80 44L106 53.7V76.6C106 93.9 95.3 109.5 80 116C64.7 109.5 54 93.9 54 76.6V53.7L80 44Z" fill="#050505"/>
  <path d="M50 83C62.9 67.7 77.5 59 95.5 56.5" stroke="#FFFFFF" stroke-width="8" stroke-linecap="round"/>
  <path d="M84 102C87.9 81.7 97.9 66.4 113 56" stroke="#FFFFFF" stroke-width="8" stroke-linecap="round"/>
  <circle cx="50" cy="83" r="6" fill="#FFFFFF"/>
  <circle cx="95.5" cy="56.5" r="6" fill="#FFFFFF"/>
  <circle cx="84" cy="102" r="6" fill="#FFFFFF"/>
</svg>
